<svg xmlns="http://www.w3.org/2000/svg" width="13" height="13" viewBox="0 0 13 13" fill="none">
  <g clip-path="url(#clip0_280_59)">
    <path d="M9.90477 2.67625C7.77223 0.543138 4.30123 0.543138 2.16869 2.67625C1.13568 3.70994 0.56665 5.08399 0.56665 6.54532C0.56665 8.00666 1.13568 9.3807 2.16869 10.414C3.23517 11.4808 4.63596 12.0139 6.03672 12.0139C7.43748 12.0139 8.83829 11.4808 9.90475 10.414C12.0373 8.28088 12.0373 4.80977 9.90477 2.67625ZM9.30563 9.81469C7.50317 11.6176 4.57027 11.6176 2.7678 9.81469C1.89497 8.94163 1.41406 7.78034 1.41406 6.54532C1.41406 5.3103 1.89497 4.14902 2.7678 3.27552C4.57027 1.47257 7.50317 1.473 9.30563 3.27552C11.1077 5.07847 11.1077 8.01217 9.30563 9.81469Z" fill="white"/>
    <path d="M7.74044 7.68181L6.60381 6.5453L7.74044 5.40879C7.89702 5.25201 7.89702 4.99753 7.74085 4.84032C7.58387 4.68273 7.32972 4.68313 7.17274 4.83992L6.03532 5.97724L4.89789 4.83992C4.74091 4.68313 4.48676 4.68273 4.32978 4.84032C4.17321 4.99751 4.17321 5.25199 4.33019 5.40879L5.46683 6.5453L4.33019 7.68181C4.17321 7.83859 4.17321 8.09307 4.32978 8.25028C4.40808 8.32907 4.51126 8.36806 4.61405 8.36806C4.71684 8.36806 4.81961 8.32866 4.89791 8.25066L6.03534 7.11334L7.17276 8.25066C7.25106 8.32907 7.35383 8.36806 7.45662 8.36806C7.55942 8.36806 7.66259 8.32866 7.74089 8.25028C7.89743 8.09307 7.89742 7.83859 7.74044 7.68181Z" fill="white"/>
  </g>
  <defs>
    <clipPath id="clip0_280_59">
      <rect width="12.5448" height="12.5448" fill="white" transform="translate(0.0178223 0.0179443)"/>
    </clipPath>
  </defs>
</svg>